<?xml version="1.0" encoding="UTF-8"?>
<svg width="1200pt" height="1200pt" version="1.1" viewBox="0 0 1200 1200" xmlns="http://www.w3.org/2000/svg">
 <path d="m887.64 262.5 45.051-105.12-109.02-68.133c-14.898-9.3164-32.113-14.254-49.688-14.25h-179.22c-17.574-0.003906-34.789 4.9336-49.688 14.25l-109.02 68.133 45.051 105.12h25.137v-75c0-2.9102 0.67969-5.7812 1.9805-8.3867l37.5-75 33.539 16.773-35.52 71.039v183.07h281.25v-183.07l-35.52-71.039 33.539-16.773 37.5 75c1.3008 2.6055 1.9805 5.4766 1.9805 8.3867v75zm-306.39-112.5h37.5v37.5h-37.5zm187.5 187.5h-37.5c-21.539 0.007812-42.035-9.2656-56.25-25.445-14.215 16.18-34.711 25.453-56.25 25.445h-37.5v-37.5h37.5c6.6133-0.007812 13.105-1.7656 18.824-5.0898 5.7148-3.3281 10.449-8.1094 13.723-13.855-8.9258-0.9375-17.188-5.1484-23.195-11.812-6.0078-6.6641-9.3398-15.316-9.3516-24.293v-21.148c0.011719-9.625 3.8398-18.852 10.645-25.656 6.8047-6.8047 16.031-10.633 25.656-10.645h39.898c9.625 0.011719 18.852 3.8398 25.656 10.645 6.8047 6.8047 10.633 16.031 10.645 25.656v21.148c-0.011719 8.9766-3.3438 17.629-9.3516 24.293-6.0078 6.6641-14.27 10.875-23.195 11.812 3.2734 5.7461 8.0078 10.527 13.723 13.855 5.7188 3.3242 12.211 5.082 18.824 5.0898h37.5zm0-150h-37.5v-37.5h37.5zm-225 225h281.25v37.5h-281.25zm556.85 158.41c-2.7461 5.8008-2.332 12.605 1.0938 18.031 19.66 31.152 25.379 62.5 20.391 111.8-2.5625 25.188-12.363 55.535-20.969 78.414-20.59-36.109-45.934-69.289-75.344-98.656l-2.2227-2.2227c22.25-98.453 8.2031-199.77-37.98-277.88l15.391-4.6484h-0.003906c14.008-4.2227 29.191-1.4961 40.855 7.3359 13.574 10.246 21.438 26.359 21.16 43.359 0 5.7266 2.6172 11.141 7.1055 14.695l7.5781 6.0039c30.375 24.062 40.031 67.711 22.945 103.77zm-444.35-345.91h37.5v18.75h-37.5zm-543.75 514.57c-14.387 16.301-26.961 34.113-37.5 53.125v-102.39c-0.019531-18.512 5.4609-36.609 15.746-52.004l37.246-55.867c14.371-21.512 22.031-46.805 22.008-72.676v-1.1875c-0.074219-42.695-20.141-82.895-54.223-108.61-8.2461-6.1914-20.777-12.363-20.777-24.16v-0.70313c0-17.578 23.414-24.844 36.059-14.738l11.617 9.2969c20.273 16.137 36.637 36.652 47.859 60.008 11.227 23.355 17.027 48.945 16.965 74.859 0.03125 34.105-10.062 67.449-29.008 95.809l-30.246 45.367c-10.285 15.395-15.766 33.492-15.746 52.004zm187.5 347.93h-56.25c-4.9727 0-9.7422-1.9766-13.258-5.4922-3.5156-3.5156-5.4922-8.2852-5.4922-13.258v-51.699c0.0625-22.77-4.3906-45.32-13.105-66.355-8.7109-21.035-21.512-40.133-37.652-56.188l26.516-26.516c19.637 19.527 35.203 42.758 45.801 68.344 10.598 25.586 16.016 53.02 15.941 80.715v32.949h37.5c6.3242-0.003906 12.625 0.79297 18.75 2.375v-208.62h37.5v231.72c12.09 13.664 18.762 31.281 18.75 49.527h37.5v-281.25h37.5v262.5c0.019531-16.621 5.5547-32.77 15.734-45.91 10.176-13.145 24.426-22.539 40.516-26.719v-650.86c-17.152 7.7891-31.098 21.254-39.48 38.125-1.5586 3.1172-3.9531 5.7344-6.9141 7.5625-2.9609 1.832-6.375 2.8008-9.8555 2.8008h-93.75c-3.4805 0-6.8945-0.96875-9.8555-2.8008-2.9648-1.8281-5.3555-4.4492-6.9141-7.5625-8.4258-16.844-22.355-30.297-39.48-38.125v214.59c0.027344 31.352-15.641 60.637-41.738 78.008l-66.359 44.258c-35.973 23.953-65.469 56.422-85.863 94.527-20.395 38.102-31.059 80.652-31.039 123.87v186.98h262.5c-0.011719-9.9414-3.9648-19.473-10.996-26.504s-16.562-10.984-26.504-10.996zm131.25-618.75h37.5v37.5h-37.5zm-93.75 0h37.5v37.5h-37.5zm661.74 238.26c39.996 39.781 71.703 87.098 93.289 139.21 21.59 52.117 32.625 108 32.469 164.41v114.38h-356.25v-18.75c0.011719-9.9414 3.9648-19.473 10.996-26.504s16.562-10.984 26.504-10.996h56.25c4.9727 0 9.7422-1.9766 13.258-5.4922 3.5156-3.5156 5.4922-8.2852 5.4922-13.258v-100.18c-0.085938-31.18 6.0117-62.062 17.945-90.871 11.93-28.805 29.457-54.957 51.562-76.941l-26.516-26.516c-25.602 25.461-45.895 55.742-59.711 89.102-13.816 33.355-20.879 69.121-20.781 105.23v81.434h-37.5c-13.172-0.011719-26.113 3.4727-37.5 10.09v-347.59h-37.5v431.25h-131.25v-18.75c0.011719-9.9414 3.9648-19.473 10.996-26.504s16.562-10.984 26.504-10.996c4.9727 0 9.7422-1.9766 13.258-5.4922 3.5156-3.5156 5.4922-8.2852 5.4922-13.258v-356.25h-37.5v339.87c-16.09 4.1797-30.34 13.574-40.52 26.715-10.176 13.145-15.711 29.293-15.73 45.914v18.75h-75v-18.75c0.011719-9.9414 3.9648-19.473 10.996-26.504s16.562-10.984 26.504-10.996c4.9727 0 9.7422-1.9766 13.258-5.4922 3.5156-3.5156 5.4922-8.2852 5.4922-13.258v-562.5h282.42c4.0898 34.281 19.629 66.18 44.102 90.531z" fill="#a3757d"/>
</svg>
